<svg width="24" height="24" viewBox="0 0 24 24" fill="none" xmlns="http://www.w3.org/2000/svg">
<g id="bell">
<g id="Union">
<path d="M10.1964 1.24893C10.6762 0.934816 11.2532 0.850098 11.75 0.850098C12.2468 0.850098 12.8237 0.934816 13.3036 1.24893C13.8418 1.6013 14.15 2.17293 14.15 2.8751C14.15 3.30461 14.0365 3.74371 13.8476 4.13762C16.9717 5.01436 19.3118 7.80207 19.4904 11.1938C19.4997 11.3715 19.5066 11.5399 19.5132 11.7008C19.5353 12.239 19.554 12.6936 19.6491 13.1315C19.761 13.6468 19.9632 14.035 20.3678 14.3385C21.175 14.9438 21.65 15.8939 21.65 16.9028C21.65 18.3607 20.5017 19.6501 18.95 19.6501H15.5456C15.1393 21.3701 13.5941 22.6501 11.75 22.6501C9.90583 22.6501 8.36063 21.3701 7.95433 19.6501H4.54997C2.99824 19.6501 1.84998 18.3607 1.84998 16.9028C1.84998 15.8939 2.32499 14.9438 3.13211 14.3385C3.53678 14.035 3.73898 13.6468 3.85089 13.1315C3.94599 12.6936 3.96464 12.239 3.98672 11.7008C3.99333 11.5399 4.00024 11.3715 4.00959 11.1938C4.1881 7.80207 6.5282 5.01436 9.65237 4.13762C9.4634 3.74371 9.34998 3.30461 9.34998 2.8751C9.34998 2.17293 9.65811 1.6013 10.1964 1.24893ZM9.85207 19.6501C10.1891 20.3596 10.9123 20.8501 11.75 20.8501C12.5877 20.8501 13.3108 20.3596 13.6479 19.6501H9.85207ZM18.95 17.8501C19.4346 17.8501 19.85 17.4411 19.85 16.9028C19.85 16.4604 19.6417 16.0439 19.2878 15.7785C18.4453 15.1466 18.0661 14.3241 17.8901 13.5135C17.7583 12.9067 17.7322 12.244 17.7101 11.6835C17.7046 11.5448 17.6994 11.4122 17.6929 11.2884C17.5265 8.12764 14.9151 5.6501 11.75 5.6501C8.58482 5.6501 5.97346 8.12764 5.8071 11.2884C5.80058 11.4122 5.79536 11.5447 5.78989 11.6834C5.76779 12.2439 5.74166 12.9067 5.60988 13.5135C5.43384 14.3241 5.05466 15.1466 4.21211 15.7785C3.85824 16.0439 3.64998 16.4604 3.64998 16.9028C3.64998 17.4411 4.06531 17.8501 4.54997 17.8501H18.95ZM12.0883 3.58637C12.2602 3.35511 12.35 3.07097 12.35 2.8751C12.35 2.83238 12.3457 2.8049 12.3421 2.78951C12.339 2.77597 12.336 2.76983 12.3355 2.7688C12.3347 2.76794 12.3299 2.76291 12.3177 2.75494C12.2546 2.71367 12.0816 2.6501 11.75 2.6501C11.4183 2.6501 11.2453 2.71367 11.1823 2.75494C11.1701 2.76291 11.1651 2.7681 11.1643 2.76897C11.1638 2.76999 11.1609 2.77597 11.1578 2.78951C11.1543 2.8049 11.15 2.83238 11.15 2.8751C11.15 3.07097 11.2397 3.35511 11.4116 3.58637C11.5902 3.82662 11.7285 3.8501 11.75 3.8501C11.7714 3.8501 11.9097 3.82662 12.0883 3.58637Z" fill="#0B002E"/>
</g>
</g>
</svg>
