<svg width="24" height="24" viewBox="0 0 24 24" fill="none" xmlns="http://www.w3.org/2000/svg">
<g id="close-solid">
<g id="Union">
<path d="M12 22.002C17.5228 22.002 22 17.5248 22 12.002C22 6.47911 17.5228 2.00195 12 2.00195C6.47715 2.00195 2 6.47911 2 12.002C2 17.5248 6.47715 22.002 12 22.002ZM15.803 9.14374L12.9391 12.0014L15.803 14.859C15.8654 14.921 15.915 14.9946 15.9488 15.0758C15.9826 15.157 16 15.244 16 15.332C16 15.4199 15.9826 15.507 15.9488 15.5881C15.915 15.6693 15.8654 15.743 15.803 15.8049C15.7411 15.8673 15.6674 15.9169 15.5863 15.9507C15.5051 15.9845 15.418 16.002 15.3301 16.002C15.2422 16.002 15.1551 15.9845 15.074 15.9507C14.9928 15.9169 14.9192 15.8673 14.8572 15.8049L12 12.9406L9.14276 15.8049C9.08085 15.8673 9.00718 15.9169 8.92602 15.9507C8.84486 15.9845 8.75781 16.002 8.66988 16.002C8.58196 16.002 8.49491 15.9845 8.41375 15.9507C8.33259 15.9169 8.25892 15.8673 8.19701 15.8049C8.13458 15.743 8.08503 15.6693 8.05122 15.5881C8.01741 15.507 8 15.4199 8 15.332C8 15.244 8.01741 15.157 8.05122 15.0758C8.08503 14.9946 8.13458 14.921 8.19701 14.859L11.0609 12.0014L8.19701 9.14374C8.07159 9.01831 8.00114 8.84818 8.00114 8.6708C8.00114 8.49341 8.07159 8.32329 8.19701 8.19785C8.32242 8.07242 8.49252 8.00195 8.66988 8.00195C8.84725 8.00195 9.01735 8.07242 9.14276 8.19785L12 11.0622L14.8572 8.19785C14.9827 8.07242 15.1528 8.00195 15.3301 8.00195C15.5075 8.00195 15.6776 8.07242 15.803 8.19785C15.9284 8.32329 15.9989 8.49341 15.9989 8.6708C15.9989 8.84818 15.9284 9.01831 15.803 9.14374Z" fill="#0B002E"/>
</g>
</g>
</svg>
