<svg width="24" height="24" viewBox="0 0 24 24" fill="none" xmlns="http://www.w3.org/2000/svg">
<g id="error-solid">
<g id="Vector">
<path d="M10.362 1.44249C11.4264 1.08916 12.5736 1.08916 13.638 1.44249C14.6981 1.79436 15.5304 2.6289 16.3665 3.80144C17.1999 4.97009 18.1208 6.59955 19.3078 8.69999L19.3544 8.78245C20.5417 10.8832 21.4625 12.5126 22.0364 13.834C22.613 15.1618 22.9002 16.3082 22.6711 17.4096C22.4403 18.5186 21.8714 19.527 21.0428 20.2892C20.2162 21.0495 19.0907 21.3703 17.6736 21.5243C16.2645 21.6775 14.4212 21.6775 12.0488 21.6775H11.9513C9.57882 21.6775 7.73554 21.6775 6.32642 21.5243C4.90927 21.3703 3.78379 21.0495 2.95722 20.2892C2.12862 19.527 1.55968 18.5186 1.32895 17.4096C1.0998 16.3082 1.387 15.1618 1.96365 13.834C2.53752 12.5126 3.45835 10.8832 4.64558 8.78244L4.69218 8.69999C5.87921 6.59956 6.80008 4.97009 7.63347 3.80144C8.46963 2.6289 9.30194 1.79436 10.362 1.44249ZM11 16.4275C11 16.9798 11.4457 17.4275 11.9955 17.4275H12.0045C12.5543 17.4275 13 16.9798 13 16.4275C13 15.8752 12.5543 15.4275 12.0045 15.4275H11.9955C11.4457 15.4275 11 15.8752 11 16.4275ZM11 12.4275C11 12.9798 11.4477 13.4275 12 13.4275C12.5523 13.4275 13 12.9798 13 12.4275V8.42749C13 7.87521 12.5523 7.42749 12 7.42749C11.4477 7.42749 11 7.87521 11 8.42749V12.4275Z" fill="#0B002E"/>
</g>
</g>
</svg>
