<svg width="24" height="24" viewBox="0 0 24 24" fill="none" xmlns="http://www.w3.org/2000/svg">
<g id="eye-hide">
<g id="Union">
<path d="M22.6364 2.63625C22.9879 2.28478 22.9879 1.71493 22.6364 1.36346C22.2849 1.01199 21.7151 1.01199 21.3636 1.36346L17.9637 4.76339C16.168 3.51934 14.1266 2.82983 11.9998 2.82983C8.08825 2.82983 4.54191 5.13615 2.13081 8.92619C1.56658 9.81048 1.31482 10.935 1.31482 12.0048C1.31482 13.0747 1.56657 14.1991 2.13078 15.0834C2.86218 16.2314 3.70383 17.2488 4.62349 18.1038L1.36358 21.3637C1.01211 21.7152 1.01211 22.285 1.36358 22.6365C1.71505 22.988 2.2849 22.988 2.63637 22.6365L10.1064 15.1665C10.112 15.1609 10.1175 15.1553 10.1229 15.1496L15.1553 10.1171C15.159 10.1136 15.1627 10.1099 15.1664 10.1062L22.6364 2.63625ZM14.4662 8.26087C13.7595 7.79268 12.9132 7.51978 11.9999 7.51978C9.52284 7.51978 7.5199 9.52272 7.5199 11.9998C7.5199 12.9132 7.79284 13.7595 8.26109 14.4662L5.89726 16.8301C5.07917 16.0778 4.31678 15.1646 3.64845 14.1156C3.31295 13.59 3.11482 12.8247 3.11482 12.0048C3.11482 11.1849 3.31295 10.4197 3.64845 9.89407L3.6492 9.89289C5.81809 6.48327 8.8516 4.62983 11.9998 4.62983C13.6231 4.62983 15.2145 5.12301 16.6663 6.06074L14.4662 8.26087ZM9.3199 11.9998C9.3199 10.5168 10.517 9.31978 11.9999 9.31978C12.4123 9.31978 12.8009 9.41199 13.1488 9.57812L9.57825 13.1486C9.41211 12.8008 9.3199 12.4121 9.3199 11.9998Z" fill="#0B002E"/>
<path d="M19.4858 7.22804C19.8731 6.9165 20.4396 6.97793 20.7512 7.36525C21.1378 7.84597 21.5184 8.36339 21.8698 8.91709C22.4334 9.80116 22.6849 10.925 22.6849 11.9943C22.6849 13.0642 22.4331 14.1887 21.8689 15.073C19.4578 18.863 15.9115 21.1693 11.9999 21.1693C10.642 21.1693 9.31368 20.8822 8.07064 20.3588C7.61253 20.1659 7.39753 19.6382 7.59042 19.1801C7.7833 18.722 8.31103 18.507 8.76914 18.6999C9.8061 19.1365 10.8977 19.3693 11.9999 19.3693C15.1481 19.3693 18.1816 17.5159 20.3505 14.1063L20.3513 14.1051C20.6868 13.5795 20.8849 12.8142 20.8849 11.9943C20.8849 11.1744 20.6868 10.4092 20.3513 9.88356L20.35 9.88157C20.0414 9.39527 19.7019 8.93269 19.3486 8.49341C19.0371 8.1061 19.0985 7.53957 19.4858 7.22804Z" fill="#0B002E"/>
<path d="M16.395 12.8632C16.4851 12.3744 16.1619 11.905 15.6731 11.8149C15.1843 11.7247 14.715 12.0479 14.6248 12.5368C14.4325 13.5797 13.5697 14.4426 12.5267 14.6349C12.0379 14.725 11.7147 15.1944 11.8048 15.6832C11.895 16.172 12.3643 16.4952 12.8531 16.405C14.6302 16.0774 16.0673 14.6402 16.395 12.8632Z" fill="#0B002E"/>
</g>
</g>
</svg>
