<svg width="24" height="24" viewBox="0 0 24 24" fill="none" xmlns="http://www.w3.org/2000/svg">
<g id="eye">
<g id="Union">
<path d="M12 7.59735C9.56583 7.59735 7.59757 9.56562 7.59757 11.9998C7.59757 14.434 9.56583 16.4022 12 16.4022C14.4342 16.4022 16.4024 14.434 16.4024 11.9998C16.4024 9.56562 14.4342 7.59735 12 7.59735ZM9.3664 11.9998C9.3664 10.5425 10.5427 9.36619 12 9.36619C13.4573 9.36619 14.6336 10.5425 14.6336 11.9998C14.6336 13.4571 13.4573 14.6334 12 14.6334C10.5427 14.6334 9.3664 13.4571 9.3664 11.9998Z" fill="#0B002E"/>
<path d="M12 2.98364C8.15615 2.98364 4.67122 5.25003 2.30187 8.97445C1.7474 9.84343 1.5 10.9485 1.5 11.9998C1.5 13.0511 1.7474 14.1561 2.30186 15.0251C4.67122 18.7495 8.15615 21.0159 12 21.0159C15.8438 21.0159 19.3288 18.7495 21.6981 15.0251C22.2526 14.1561 22.5 13.0511 22.5 11.9998C22.5 10.9485 22.2526 9.84357 21.6982 8.97461C19.3289 5.2501 15.8439 2.98364 12 2.98364ZM3.79396 9.9244C5.9253 6.57383 8.90628 4.75248 12 4.75248C15.0937 4.75248 18.0747 6.57383 20.206 9.9244L20.2068 9.92556C20.5365 10.4421 20.7312 11.1941 20.7312 11.9998C20.7312 12.8055 20.5365 13.5575 20.2068 14.074L20.206 14.0752C18.0747 17.4257 15.0937 19.2471 12 19.2471C8.90628 19.2471 5.9253 17.4257 3.79397 14.0752L3.79323 14.074C3.46353 13.5575 3.26883 12.8055 3.26883 11.9998C3.26883 11.1941 3.46353 10.4421 3.79323 9.92556L3.79396 9.9244Z" fill="#0B002E"/>
</g>
</g>
</svg>
