<svg width="24" height="24" viewBox="0 0 24 24" fill="none" xmlns="http://www.w3.org/2000/svg">
<g id="heart">
<g id="Union">
<path d="M4.21206 3.26318C7.25076 1.35485 9.96041 2.00491 11.6381 3.3231L11.6443 3.32797C11.8025 3.45453 11.9443 3.55408 12.06 3.62759C12.1896 3.54393 12.3559 3.43321 12.5712 3.28966C14.2312 2.11022 16.91 1.46045 19.9409 3.25652L19.951 3.26253L19.961 3.26881C22.0643 4.59089 23.2366 7.29506 22.8241 10.3753C22.4093 13.4724 20.4126 16.9467 16.2178 20.054L16.205 20.0634L16.1919 20.0724C16.0265 20.1861 15.8677 20.2972 15.7138 20.4049C14.4627 21.2804 13.5332 21.9308 11.9821 21.9308C10.3017 21.9308 9.28073 21.1809 7.90041 20.1671C7.8507 20.1306 7.80052 20.0937 7.74983 20.0565L7.74635 20.054C3.5528 16.9476 1.55198 13.4712 1.16401 10.3674C0.777875 7.27836 2.01119 4.57776 4.21206 3.26318ZM10.5232 4.73625C9.4023 3.85711 7.51705 3.30933 5.16159 4.79239L5.15188 4.7985L5.14203 4.80437C3.64918 5.69201 2.63683 7.6379 2.95011 10.1442C3.26209 12.64 4.91084 15.713 8.81607 18.6063C10.3565 19.736 10.9233 20.1308 11.9821 20.1308C12.9431 20.1308 13.3959 19.8175 14.7373 18.8893C14.8689 18.7983 15.009 18.7014 15.159 18.5982C19.055 15.7083 20.7052 12.6365 21.04 10.1363C21.3767 7.62234 20.4043 5.67969 19.0128 4.79887C16.656 3.40716 14.7445 3.94932 13.6052 4.76314L13.5934 4.77158L13.5647 4.79067C13.2788 4.98132 13.0428 5.13863 12.8662 5.24728C12.7771 5.30214 12.6812 5.3583 12.5888 5.40312L12.5839 5.4055C12.5262 5.43357 12.3267 5.53078 12.0821 5.53078C11.8607 5.53078 11.6689 5.44986 11.6085 5.42436L11.6047 5.42276C11.5027 5.37982 11.3944 5.32438 11.2855 5.2622C11.0667 5.13713 10.8044 4.96096 10.5232 4.73625Z" fill="#0B002E"/>
</g>
</g>
</svg>
