<svg width="24" height="24" viewBox="0 0 24 24" fill="none" xmlns="http://www.w3.org/2000/svg">
<g id="pin">
<path id="Vector" d="M16.162 9.18429L15.9522 8.06352H17.1114C17.591 8.06352 17.9907 7.68325 17.9907 7.22293V3.84058C17.9907 3.38026 17.601 3 17.1114 3H6.87866C6.38901 3 5.99929 3.38026 5.99929 3.84058V7.22293C5.99929 7.68325 6.38901 8.06352 6.87866 8.06352H8.03783L7.82798 9.18429C6.07923 10.3451 5 12.1464 5 14.1678C5 14.6281 5.38972 15.0083 5.87937 15.0083H10.9957V18.7209C10.9957 18.781 11.0057 18.831 11.0257 18.881L11.6852 20.7823C11.7852 21.0725 12.2148 21.0725 12.3148 20.7823L12.9743 18.881C12.9943 18.831 13.0043 18.771 13.0043 18.7209V15.0083H18.1206C18.6003 15.0083 19 14.6281 19 14.1678C18.99 12.1464 17.9108 10.3451 16.162 9.18429ZM6.83869 13.3172C7.12848 12.0363 8.02784 10.9855 9.21699 10.3451C9.35689 10.2751 9.45682 10.145 9.4768 9.98485L9.93647 6.95274C9.98644 6.65254 9.74661 6.38235 9.44682 6.38235H7.74804V4.69117H16.242V6.38235H14.5432C14.2334 6.38235 14.0036 6.65254 14.0535 6.95274L14.5132 9.98485C14.5332 10.145 14.6331 10.2751 14.773 10.3451C15.9722 10.9855 16.8715 12.0463 17.1513 13.3172H6.83869Z" fill="#0B002E"/>
</g>
</svg>
