<svg width="24" height="24" viewBox="0 0 24 24" fill="none" xmlns="http://www.w3.org/2000/svg">
<g id="settings">
<g id="Union">
<path d="M11.995 8.06598C14.1677 8.06598 15.929 9.82728 15.929 12C15.929 14.1726 14.1677 15.9339 11.995 15.9339C9.82234 15.9339 8.06104 14.1726 8.06104 12C8.06104 9.82728 9.82234 8.06598 11.995 8.06598ZM9.87672 12C9.87672 13.1699 10.8251 14.1183 11.995 14.1183C13.1649 14.1183 14.1133 13.1699 14.1133 12C14.1133 10.8301 13.1649 9.88166 11.995 9.88166C10.8251 9.88166 9.87672 10.8301 9.87672 12Z" fill="#0B002E"/>
<path d="M7.47298 1.92534C8.71701 1.19065 10.2913 1.64312 11.0099 2.85093L11.0154 2.86021L11.1283 3.05526C11.4854 3.67819 11.8325 3.78668 11.9962 3.78668C12.1613 3.78668 12.5116 3.67653 12.8739 3.05151L12.99 2.8509C13.7086 1.64309 15.283 1.19065 16.527 1.92535L18.2656 2.92028C19.6221 3.69577 20.0823 5.43411 19.3074 6.77524L19.3068 6.77632C18.9447 7.40096 19.0245 7.75739 19.1062 7.89907C19.1879 8.0409 19.4561 8.28805 20.1756 8.28805C21.7229 8.28805 23 9.54881 23 11.1124V12.8878C23 14.4351 21.7392 15.7122 20.1756 15.7122C19.4561 15.7122 19.1879 15.9593 19.1062 16.1011C19.0245 16.2428 18.9447 16.5993 19.3068 17.2239L19.3096 17.2287C20.0802 18.5773 19.6236 20.304 18.2656 21.0799L16.527 22.0749C15.283 22.8096 13.7087 22.3571 12.9901 21.1493L12.9846 21.14L12.8737 20.9483L12.8717 20.945C12.5146 20.322 12.1675 20.2135 12.0038 20.2135C11.8387 20.2135 11.4885 20.3236 11.1263 20.9483L11.01 21.1493C10.2914 22.3571 8.71703 22.8096 7.473 22.0749L5.73436 21.0799C4.37749 20.3046 3.91764 18.5663 4.69261 17.225L4.69324 17.2239C5.05529 16.5993 4.97549 16.2428 4.89384 16.1011C4.81211 15.9593 4.54386 15.7122 3.82439 15.7122C2.26076 15.7122 1 14.4351 1 12.8878V11.1124C1 9.56511 2.26076 8.28805 3.82439 8.28805C4.54386 8.28805 4.81211 8.0409 4.89384 7.89907C4.97549 7.75739 5.05529 7.40096 4.69324 6.77632L4.69261 6.77524C3.91774 5.43411 4.37738 3.69605 5.73387 2.92056L7.47298 1.92534ZM8.39402 3.49008L8.38075 3.49782L6.63568 4.49645C6.15686 4.77006 5.99077 5.39209 6.26447 5.86642C6.82007 6.82531 6.98543 7.90602 6.467 8.80564C5.94855 9.70531 4.93069 10.1037 3.82439 10.1037C3.26974 10.1037 2.81568 10.5617 2.81568 11.1124V12.8878C2.81568 13.4386 3.26974 13.8965 3.82439 13.8965C4.93069 13.8965 5.94855 14.2949 6.467 15.1946C6.98543 16.0942 6.82007 17.1749 6.26447 18.1338C5.99077 18.6081 6.15637 19.2299 6.63519 19.5035L8.38075 20.5024L8.39402 20.5101C8.74147 20.7169 9.21815 20.6053 9.44725 20.2247L9.555 20.0386C10.1106 19.08 10.966 18.3979 12.0038 18.3979C13.0423 18.3979 13.8951 19.0803 14.4459 20.0401L14.4469 20.042L14.5528 20.2248C14.7819 20.6053 15.2585 20.7168 15.606 20.5101L15.6192 20.5024L17.3643 19.5038C17.8422 19.2307 17.9868 18.5868 17.7084 18.0995C17.1525 17.1405 17.0145 16.0944 17.533 15.1946C18.0515 14.2949 19.0693 13.8965 20.1756 13.8965C20.7303 13.8965 21.1843 13.4386 21.1843 12.8878V11.1124C21.1843 10.5578 20.7264 10.1037 20.1756 10.1037C19.0693 10.1037 18.0515 9.70531 17.533 8.80564C17.0146 7.90609 17.1799 6.82548 17.7354 5.86664C18.0093 5.39229 17.8437 4.77038 17.3648 4.49673L15.6192 3.49782L15.606 3.49008C15.2585 3.28338 14.7819 3.39494 14.5528 3.77546L14.445 3.96162C13.8893 4.92027 13.034 5.60236 11.9962 5.60236C10.9577 5.60236 10.1048 4.91982 9.55405 3.95998L9.44724 3.77549C9.21814 3.39495 8.74147 3.28337 8.39402 3.49008Z" fill="#0B002E"/>
</g>
</g>
</svg>
