<svg width="24" height="24" viewBox="0 0 24 24" fill="none" xmlns="http://www.w3.org/2000/svg">
<g id="filter">
<g id="Union">
<path d="M18.481 2.1001C18.4622 2.1001 18.4434 2.1001 18.4244 2.1001L5.51887 2.1001C4.91858 2.10004 4.37905 2.09999 3.94235 2.16001C3.46399 2.22576 2.97783 2.37829 2.58198 2.78295C2.18883 3.18486 2.04327 3.67371 1.98021 4.15319C1.92203 4.5956 1.92207 5.14355 1.92212 5.7596L1.92213 6.54309C1.9221 7.02911 1.92208 7.45491 1.95595 7.81112C1.99248 8.19531 2.07294 8.56624 2.27307 8.92758C2.47375 9.28991 2.74546 9.55366 3.05217 9.7858C3.33507 9.99991 3.69375 10.2199 4.10048 10.4693L6.80744 12.1297C7.4309 12.5121 7.62097 12.6344 7.74478 12.7515C8.0444 13.0349 8.22169 13.353 8.30654 13.7677C8.34207 13.9413 8.34661 14.1632 8.34661 14.873L8.34661 17.6103C8.34655 18.507 8.3465 19.2774 8.43251 19.8718C8.5227 20.4951 8.73592 21.1478 9.35279 21.5682C9.97563 21.9927 10.6606 21.9432 11.2681 21.7859C11.8418 21.6375 12.5404 21.3399 13.3474 20.9961L13.4501 20.9523C13.8277 20.7915 14.1751 20.6436 14.4531 20.4872C14.7606 20.3142 15.0536 20.0939 15.276 19.753C15.4974 19.4135 15.582 19.0564 15.6194 18.7053C15.6534 18.3854 15.6533 18.0031 15.6533 17.5836L15.6533 14.873C15.6533 14.1632 15.6578 13.9413 15.6934 13.7677C15.7782 13.353 15.9555 13.0349 16.2551 12.7515C16.3789 12.6344 16.569 12.5121 17.1925 12.1297L19.8994 10.4694C20.3061 10.2199 20.6648 9.99992 20.9477 9.7858C21.2545 9.55366 21.5262 9.28991 21.7268 8.92758C21.927 8.56624 22.0074 8.19531 22.044 7.81112C22.0778 7.45491 22.0778 7.02911 22.0778 6.54309L22.0778 5.81477C22.0778 5.79632 22.0778 5.77794 22.0778 5.75961C22.0778 5.14356 22.0779 4.59561 22.0197 4.15319C21.9566 3.67371 21.8111 3.18486 21.4179 2.78295C21.0221 2.37829 20.5359 2.22576 20.0576 2.16001C19.6209 2.09999 19.0813 2.10004 18.481 2.1001ZM20.1302 4.04056L20.1312 4.04165L20.1322 4.04261C20.1444 4.05488 20.1984 4.10895 20.2351 4.3879C20.276 4.69879 20.2778 5.12644 20.2778 5.81477V6.50458C20.2778 7.04036 20.2769 7.37986 20.252 7.64074C20.229 7.88301 20.1903 7.98663 20.1522 8.05547C20.1146 8.12331 20.0496 8.20815 19.8615 8.35054C19.6572 8.5051 19.3749 8.67943 18.9249 8.95547L16.2513 10.5953C16.2224 10.6131 16.1938 10.6306 16.1657 10.6478C15.665 10.9546 15.2969 11.1802 15.0182 11.4439C14.4469 11.9843 14.088 12.6342 13.9299 13.4068C13.8529 13.7831 13.8531 14.2033 13.8533 14.7789C13.8533 14.8098 13.8533 14.8412 13.8533 14.873L13.8533 17.5425C13.8533 18.0165 13.8521 18.3017 13.8295 18.5149C13.809 18.7072 13.778 18.7547 13.7682 18.7698C13.759 18.7839 13.7298 18.8288 13.5705 18.9184C13.3894 19.0203 13.1351 19.13 12.7062 19.3127C11.8163 19.6917 11.2436 19.933 10.8171 20.0434C10.6143 20.0959 10.498 20.1033 10.4352 20.0991C10.3889 20.0961 10.3768 20.0878 10.3671 20.0812C10.3568 20.0742 10.3399 20.0627 10.3153 20.0118C10.2842 19.9476 10.2451 19.8289 10.214 19.614C10.1489 19.1642 10.1466 18.5263 10.1466 17.5425V14.873C10.1466 14.8412 10.1466 14.8098 10.1466 14.7789C10.1468 14.2034 10.147 13.7831 10.07 13.4068C9.9119 12.6342 9.55303 11.9843 8.98173 11.4439C8.70298 11.1802 8.33493 10.9546 7.83422 10.6478C7.80609 10.6306 7.77754 10.6131 7.74856 10.5953L5.07504 8.95547C4.625 8.67943 4.34268 8.5051 4.13846 8.35054C3.95033 8.20815 3.88527 8.12332 3.84769 8.05547C3.80957 7.98663 3.7709 7.88301 3.74787 7.64074C3.72306 7.37986 3.72213 7.04036 3.72213 6.50458V5.81477C3.72213 5.12644 3.72396 4.69879 3.76484 4.3879C3.80153 4.10895 3.85551 4.05488 3.86776 4.04262L3.86871 4.04165L3.86974 4.04056C3.87957 4.02995 3.92665 3.97909 4.18743 3.94325C4.48682 3.9021 4.90051 3.9001 5.57547 3.9001H18.4244C19.0994 3.9001 19.5131 3.9021 19.8125 3.94325C20.0733 3.97909 20.1203 4.02995 20.1302 4.04056Z" fill="#0B002E"/>
</g>
</g>
</svg>
