<svg width="24" height="24" viewBox="0 0 24 24" fill="none" xmlns="http://www.w3.org/2000/svg">
<g id="mail-download">
<path id="Vector" d="M14.9205 1.66181C12.9675 1.61273 11.0335 1.61273 9.08048 1.6618L9.02231 1.66326C7.49749 1.70155 6.27051 1.73235 5.28719 1.9036C4.25769 2.08289 3.42097 2.42677 2.71411 3.13632C2.0102 3.8429 1.66813 4.6676 1.49225 5.6804C1.32478 6.64478 1.29927 7.8418 1.26768 9.32465L1.26642 9.38339C1.24518 10.3797 1.24518 11.3703 1.26643 12.3666L1.26768 12.4254C1.29928 13.9082 1.32478 15.1052 1.49225 16.0696C1.66813 17.0824 2.01021 17.9071 2.71411 18.6137C3.42097 19.3232 4.25769 19.6671 5.28719 19.8464C6.2705 20.0176 7.49746 20.0485 9.02226 20.0867L9.08048 20.0882C10.7438 20.13 12.4235 20.1354 14.0917 20.1058C14.455 20.0994 14.6366 20.0961 14.7238 19.9999C14.811 19.9036 14.7931 19.6839 14.7572 19.2446C14.7248 18.8476 14.7773 18.3844 15.0144 17.8958C15.4007 17.0994 16.0365 16.7304 16.5173 16.5585C16.7702 16.4681 16.8967 16.4228 16.9514 16.3451C17.0062 16.2674 17.0062 16.1528 17.0062 15.9235V13.375C17.0062 11.9943 18.1254 10.875 19.5062 10.875C20.8869 10.875 22.0062 11.9943 22.0062 13.375V16.2556C22.0062 16.3575 22.0553 16.4391 22.1546 16.4621C22.2794 16.4909 22.4322 16.4214 22.4511 16.2947C22.5986 15.3101 22.7042 13.7918 22.7333 12.4253L22.7346 12.3666C22.7558 11.3703 22.7558 10.3797 22.7346 9.3834L22.7333 9.32467C22.7017 7.84183 22.6762 6.64479 22.5087 5.68042C22.3329 4.66761 21.9908 3.84292 21.2869 3.13634C20.58 2.42679 19.7433 2.08291 18.7138 1.90362C17.7305 1.73237 16.5035 1.70156 14.9787 1.66327L14.9205 1.66181Z" fill="#C2C2FF"/>
<g id="Union">
<path d="M7.50959 6.51435C7.03418 6.23328 6.42092 6.39081 6.13984 6.86622C5.85877 7.34163 6.0163 7.95488 6.49171 8.23596L9.43372 9.97539C10.3093 10.493 11.111 10.8752 12.0007 10.8752C12.8903 10.8752 13.6921 10.493 14.5676 9.97539L17.5096 8.23596C17.985 7.95488 18.1425 7.34163 17.8615 6.86622C17.5804 6.39081 16.9671 6.23328 16.4917 6.51435L13.5497 8.25378C12.7094 8.75062 12.311 8.87516 12.0007 8.87516C11.6903 8.87516 11.2919 8.75062 10.4516 8.25378L7.50959 6.51435Z" fill="#0B002E"/>
<path d="M19.5064 12.375C20.0586 12.375 20.5064 12.8227 20.5064 13.375V17.875H21.0908C21.266 17.8749 21.4808 17.8748 21.6566 17.8968L21.66 17.8972C21.7867 17.913 22.3626 17.985 22.6368 18.5504C22.9117 19.1171 22.6099 19.6172 22.5445 19.7255L22.5421 19.7296C22.4506 19.8816 22.3176 20.051 22.2078 20.191L22.1817 20.2243C21.887 20.6002 21.5051 21.0844 21.1246 21.4754C20.9348 21.6705 20.7175 21.8717 20.4866 22.0306C20.2814 22.1718 19.9312 22.375 19.5005 22.375C19.0698 22.375 18.7196 22.1718 18.5144 22.0306C18.2835 21.8717 18.0662 21.6705 17.8764 21.4754C17.4959 21.0844 17.114 20.6002 16.8193 20.2243L16.794 20.1921C16.684 20.0519 16.5506 19.8819 16.4589 19.7296L16.4565 19.7256C16.3911 19.6172 16.0893 19.1171 16.3642 18.5504C16.6384 17.985 17.2141 17.9131 17.3408 17.8972L17.3444 17.8968C17.5201 17.8748 17.7349 17.8749 17.9102 17.875H18.5064V13.375C18.5064 12.8227 18.9541 12.375 19.5064 12.375Z" fill="#0B002E"/>
</g>
</g>
</svg>
