<svg width="24" height="24" viewBox="0 0 24 24" fill="none" xmlns="http://www.w3.org/2000/svg">
<g id="search">
<path id="Union" d="M11 2C6.02944 2 2 6.02944 2 11C2 15.9706 6.02944 20 11 20C13.1588 20 15.1401 19.2399 16.6909 17.9727L20.4563 21.732C20.8078 22.0834 21.3776 22.0834 21.7291 21.732C22.0806 21.3805 22.0806 20.8106 21.7291 20.4592L17.9646 16.7008C19.2366 15.1486 20 13.1635 20 11C20 6.02944 15.9706 2 11 2ZM3.82022 11C3.82022 7.03472 7.03472 3.82022 11 3.82022C14.9653 3.82022 18.1798 7.03472 18.1798 11C18.1798 14.9653 14.9653 18.1798 11 18.1798C7.03472 18.1798 3.82022 14.9653 3.82022 11Z" fill="#0B002E"/>
</g>
</svg>
